<?xml version="1.0" encoding="UTF-8"?>
<svg width="26px" height="25px" viewBox="0 0 26 25" version="1.1" xmlns="http://www.w3.org/2000/svg" xmlns:xlink="http://www.w3.org/1999/xlink">
    <title>icon_tabbar_star_sel</title>
    <g id="页面-1" stroke="none" stroke-width="1" fill="none" fill-rule="evenodd">
        <g id="icon_tabbar_star_sel" transform="translate(0.107177, 0.559915)" fill="#FFFFFF" fill-rule="nonzero">
            <path d="M4.79329179,23.682189 C5.02956111,23.8586651 5.29407116,23.922995 5.58682191,23.8751786 C5.87957267,23.8273622 6.19924852,23.6774709 6.54584945,23.4255047 L12.4996731,19.0598301 L18.4464196,23.4255047 C18.7940186,23.6774709 19.1142161,23.8273622 19.4070123,23.8751786 C19.6998084,23.922995 19.9667002,23.8586651 20.2076876,23.682189 C20.4370612,23.5067109 20.5781514,23.2728461 20.6309581,22.9805943 C20.6837649,22.6883426 20.6404398,22.3411973 20.5009828,21.9391583 L18.1597933,14.9433543 L24.1588021,10.6332084 C24.5054031,10.3880472 24.746209,10.1325651 24.8812201,9.86676215 C25.0162311,9.60095916 25.0361471,9.3269675 24.9409679,9.04478716 C24.8468776,8.76832302 24.6686548,8.56033978 24.4062997,8.42083744 C24.1439446,8.2813351 23.7985458,8.2144874 23.3701035,8.22029432 L16.0061494,8.26697657 L13.7655377,1.23320066 C13.6318877,0.826988003 13.4614907,0.519901394 13.2543467,0.311940837 C13.0472028,0.103980279 12.7956449,0 12.4996731,0 C12.2047901,0 11.9525744,0.103980279 11.743026,0.311940837 C11.5334777,0.519901394 11.3642375,0.826988003 11.2353056,1.23320066 L8.9876167,8.26697657 L1.62053229,8.22029432 C1.19789691,8.2144874 0.854471645,8.2810629 0.590256486,8.42002084 C0.326041327,8.55897878 0.149247633,8.76668982 0.059875404,9.04315396 C-0.0363018173,9.3264231 -0.0166127069,9.60095916 0.118942735,9.86676215 C0.254498177,10.1325651 0.493171932,10.3880472 0.834964001,10.6332084 L6.83397281,14.9433543 L4.49278334,21.9391583 C4.3580445,22.3411973 4.3159216,22.6883426 4.36641464,22.9805943 C4.41690768,23.2728461 4.55920006,23.5067109 4.79329179,23.682189 Z" id="路径"></path>
        </g>
    </g>
</svg>